<svg width="525" height="233" viewBox="0 0 525 233" fill="none" xmlns="http://www.w3.org/2000/svg">
<mask id="path-1-inside-1" fill="white">
<path fill-rule="evenodd" clip-rule="evenodd" d="M136.51 227.608V192.474H161.33V158.608H136.51V27.7327H83.5475L0 159.194V192.474H96.0552V227.608H136.51ZM96.8369 158.608H42.6043V157.047L95.2735 73.7977H96.8369V158.608ZM261.914 233C312.238 233 342.627 194.743 342.725 128.866C342.823 63.4767 312.042 26 261.914 26C211.687 26 181.2 63.3791 181.102 128.866C180.907 194.547 211.492 232.902 261.914 233ZM261.914 197.963C238.95 197.963 224.097 174.931 224.195 128.866C224.293 83.4837 239.048 60.6464 261.914 60.6464C284.682 60.6464 299.535 83.4837 299.535 128.866C299.632 174.931 284.779 197.963 261.914 197.963ZM500.18 228.608V193.474H525V159.608H500.18V28.7327H447.218L363.67 160.194V193.474H459.725V228.608H500.18ZM460.507 159.608H406.275V158.047L458.944 74.7977H460.507V159.608Z"/>
</mask>
<path fill-rule="evenodd" clip-rule="evenodd" d="M136.51 227.608V192.474H161.33V158.608H136.51V27.7327H83.5475L0 159.194V192.474H96.0552V227.608H136.51ZM96.8369 158.608H42.6043V157.047L95.2735 73.7977H96.8369V158.608ZM261.914 233C312.238 233 342.627 194.743 342.725 128.866C342.823 63.4767 312.042 26 261.914 26C211.687 26 181.2 63.3791 181.102 128.866C180.907 194.547 211.492 232.902 261.914 233ZM261.914 197.963C238.95 197.963 224.097 174.931 224.195 128.866C224.293 83.4837 239.048 60.6464 261.914 60.6464C284.682 60.6464 299.535 83.4837 299.535 128.866C299.632 174.931 284.779 197.963 261.914 197.963ZM500.18 228.608V193.474H525V159.608H500.18V28.7327H447.218L363.67 160.194V193.474H459.725V228.608H500.18ZM460.507 159.608H406.275V158.047L458.944 74.7977H460.507V159.608Z" fill="white"/>
<path d="M136.51 227.608V230.608H139.51V227.608H136.51ZM136.51 192.474V189.474H133.51V192.474H136.51ZM161.33 192.474V195.474H164.33V192.474H161.33ZM161.33 158.608H164.33V155.608H161.33V158.608ZM136.51 158.608H133.51V161.608H136.51V158.608ZM136.51 27.7327H139.51V24.7327H136.51V27.7327ZM83.5475 27.7327V24.7327H81.8995L81.0156 26.1235L83.5475 27.7327ZM0 159.194L-2.53194 157.585L-3 158.321V159.194H0ZM0 192.474H-3V195.474H0V192.474ZM96.0552 192.474H99.0552V189.474H96.0552V192.474ZM96.0552 227.608H93.0552V230.608H96.0552V227.608ZM96.8369 158.608V161.608H99.8369V158.608H96.8369ZM42.6043 158.608H39.6043V161.608H42.6043V158.608ZM42.6043 157.047L40.0691 155.443L39.6043 156.177V157.047H42.6043ZM95.2735 73.7977V70.7977H93.6215L92.7383 72.1938L95.2735 73.7977ZM96.8369 73.7977H99.8369V70.7977H96.8369V73.7977ZM261.914 233L261.908 236H261.914V233ZM342.725 128.866L339.725 128.861V128.861L342.725 128.866ZM181.102 128.866L184.102 128.875L184.102 128.87L181.102 128.866ZM224.195 128.866L221.195 128.859V128.859L224.195 128.866ZM299.535 128.866H296.535V128.872L299.535 128.866ZM500.18 228.608V231.608H503.18V228.608H500.18ZM500.18 193.474V190.474H497.18V193.474H500.18ZM525 193.474V196.474H528V193.474H525ZM525 159.608H528V156.608H525V159.608ZM500.18 159.608H497.18V162.608H500.18V159.608ZM500.18 28.7327H503.18V25.7327H500.18V28.7327ZM447.218 28.7327V25.7327H445.57L444.686 27.1235L447.218 28.7327ZM363.67 160.194L361.138 158.585L360.67 159.321V160.194H363.67ZM363.67 193.474H360.67V196.474H363.67V193.474ZM459.725 193.474H462.725V190.474H459.725V193.474ZM459.725 228.608H456.725V231.608H459.725V228.608ZM460.507 159.608V162.608H463.507V159.608H460.507ZM406.275 159.608H403.275V162.608H406.275V159.608ZM406.275 158.047L403.739 156.443L403.275 157.177V158.047H406.275ZM458.944 74.7977V71.7977H457.292L456.409 73.1938L458.944 74.7977ZM460.507 74.7977H463.507V71.7977H460.507V74.7977ZM139.51 227.608V192.474H133.51V227.608H139.51ZM136.51 195.474H161.33V189.474H136.51V195.474ZM164.33 192.474V158.608H158.33V192.474H164.33ZM161.33 155.608H136.51V161.608H161.33V155.608ZM139.51 158.608V27.7327H133.51V158.608H139.51ZM136.51 24.7327H83.5475V30.7327H136.51V24.7327ZM81.0156 26.1235L-2.53194 157.585L2.53194 160.803L86.0794 29.3418L81.0156 26.1235ZM-3 159.194V192.474H3V159.194H-3ZM0 195.474H96.0552V189.474H0V195.474ZM93.0552 192.474V227.608H99.0552V192.474H93.0552ZM96.0552 230.608H136.51V224.608H96.0552V230.608ZM96.8369 155.608H42.6043V161.608H96.8369V155.608ZM45.6043 158.608V157.047H39.6043V158.608H45.6043ZM45.1396 158.651L97.8087 75.4017L92.7383 72.1938L40.0691 155.443L45.1396 158.651ZM95.2735 76.7977H96.8369V70.7977H95.2735V76.7977ZM93.8369 73.7977V158.608H99.8369V73.7977H93.8369ZM261.914 236C287.915 236 309 226.074 323.519 207.483C337.963 188.988 345.676 162.222 345.725 128.87L339.725 128.861C339.677 161.386 332.146 186.688 318.79 203.79C305.508 220.797 286.237 230 261.914 230V236ZM345.725 128.87C345.775 95.7476 338.008 69.2879 323.502 51.0448C308.927 32.7141 287.796 23 261.914 23V29C286.16 29 305.484 38.0242 318.806 54.7791C332.198 71.6216 339.773 96.5947 339.725 128.861L345.725 128.87ZM261.914 23C235.985 23 214.9 32.6882 200.36 51.0104C185.892 69.2412 178.152 95.6988 178.102 128.861L184.102 128.87C184.15 96.5459 191.703 71.5706 205.06 54.7403C218.344 38.0013 237.616 29 261.914 29V23ZM178.102 128.857C178.003 162.12 185.693 188.865 200.163 207.375C214.705 225.976 235.861 235.95 261.908 236L261.92 230C237.545 229.953 218.197 220.7 204.89 203.679C191.511 186.566 184.006 161.293 184.102 128.875L178.102 128.857ZM261.914 194.963C251.649 194.963 243.123 189.911 237.012 179.202C230.809 168.331 227.147 151.656 227.195 128.872L221.195 128.859C221.146 152.141 224.861 170.014 231.801 182.176C238.833 194.499 249.215 200.963 261.914 200.963V194.963ZM227.195 128.872C227.243 106.431 230.927 89.9748 237.116 79.2357C243.212 68.657 251.691 63.6464 261.914 63.6464V57.6464C249.27 57.6464 238.939 64.0544 231.917 76.2399C224.987 88.265 221.245 105.918 221.195 128.859L227.195 128.872ZM261.914 63.6464C272.085 63.6464 280.565 68.6545 286.663 79.2357C292.851 89.9738 296.535 106.429 296.535 128.866H302.535C302.535 105.92 298.792 88.266 291.861 76.2399C284.841 64.0569 274.511 57.6464 261.914 57.6464V63.6464ZM296.535 128.872C296.583 151.655 292.921 168.332 286.729 179.204C280.627 189.916 272.124 194.963 261.914 194.963V200.963C274.569 200.963 284.925 194.494 291.942 182.174C298.868 170.013 302.584 152.141 302.535 128.859L296.535 128.872ZM503.18 228.608V193.474H497.18V228.608H503.18ZM500.18 196.474H525V190.474H500.18V196.474ZM528 193.474V159.608H522V193.474H528ZM525 156.608H500.18V162.608H525V156.608ZM503.18 159.608V28.7327H497.18V159.608H503.18ZM500.18 25.7327H447.218V31.7327H500.18V25.7327ZM444.686 27.1235L361.138 158.585L366.202 161.803L449.75 30.3418L444.686 27.1235ZM360.67 160.194V193.474H366.67V160.194H360.67ZM363.67 196.474H459.725V190.474H363.67V196.474ZM456.725 193.474V228.608H462.725V193.474H456.725ZM459.725 231.608H500.18V225.608H459.725V231.608ZM460.507 156.608H406.275V162.608H460.507V156.608ZM409.275 159.608V158.047H403.275V159.608H409.275ZM408.81 159.651L461.479 76.4017L456.409 73.1938L403.739 156.443L408.81 159.651ZM458.944 77.7977H460.507V71.7977H458.944V77.7977ZM457.507 74.7977V159.608H463.507V74.7977H457.507Z" fill="#3D3D3D" mask="url(#path-1-inside-1)"/>
<path fill-rule="evenodd" clip-rule="evenodd" d="M261.914 207C312.238 207 342.627 168.743 342.725 102.866C342.823 37.4767 312.042 0 261.914 0C211.687 0 181.2 37.3791 181.102 102.866C180.907 168.547 211.492 206.902 261.914 207ZM136.51 167.474V202.608H96.0552V167.474H0V134.194L83.5475 2.73267H136.51V133.608H161.33V167.474H136.51ZM42.6043 133.608H96.8369V48.7977H95.2735L42.6043 132.047V133.608ZM224.195 102.866C224.097 148.931 238.95 171.963 261.914 171.963C284.779 171.963 299.632 148.931 299.535 102.866C299.535 57.4837 284.682 34.6464 261.914 34.6464C239.048 34.6464 224.293 57.4837 224.195 102.866ZM500.18 202.608V167.474H525V133.608H500.18V2.73267H447.218L363.67 134.194V167.474H459.725V202.608H500.18ZM406.275 133.608H460.507V48.7977H458.944L406.275 132.047V133.608Z" fill="#0B409C"/>
</svg>
