<svg width="742" height="552" viewBox="0 0 742 552" fill="none" xmlns="http://www.w3.org/2000/svg">
<path d="M435.057 59.7079C423.787 66.3779 420.567 77.8779 419.233 82.6159C418.911 83.7659 415.139 97.8879 421.671 112.608C423.603 116.978 425.673 121.486 430.365 123.648C433.079 124.936 435.517 124.844 445.085 124.016C449.547 123.648 454.377 123.188 459.529 122.636C463.163 117.99 469.419 108.698 471.259 95.6339C471.581 93.1959 475.353 64.1239 459.529 56.3959C449.179 51.2899 436.713 58.6959 435.057 59.7079Z" fill="#EC615B"/>
<path d="M226.953 128.294C232.694 128.294 237.349 123.145 237.349 116.794C237.349 110.443 232.694 105.294 226.953 105.294C221.211 105.294 216.557 110.443 216.557 116.794C216.557 123.145 221.211 128.294 226.953 128.294Z" fill="#EC615B"/>
<path d="M462.703 312.57C466.971 312.57 470.431 309.234 470.431 305.118C470.431 301.002 466.971 297.666 462.703 297.666C458.435 297.666 454.975 301.002 454.975 305.118C454.975 309.234 458.435 312.57 462.703 312.57Z" fill="#EC615B"/>
<path d="M227.045 267.582C230.221 267.582 232.795 265.007 232.795 261.832C232.795 258.656 230.221 256.082 227.045 256.082C223.869 256.082 221.295 258.656 221.295 261.832C221.295 265.007 223.869 267.582 227.045 267.582Z" fill="#EC615B"/>
<path d="M216.327 124.476C221.382 124.476 225.481 120.172 225.481 114.862C225.481 109.552 221.382 105.248 216.327 105.248C211.271 105.248 207.173 109.552 207.173 114.862C207.173 120.172 211.271 124.476 216.327 124.476Z" fill="#0B409C"/>
<path d="M460.587 300.794C463.712 300.794 466.245 298.158 466.245 294.906C466.245 291.654 463.712 289.018 460.587 289.018C457.462 289.018 454.929 291.654 454.929 294.906C454.929 298.158 457.462 300.794 460.587 300.794Z" fill="#0B409C"/>
<path d="M536.211 138.414C539.641 138.414 542.421 135.448 542.421 131.79C542.421 128.132 539.641 125.166 536.211 125.166C532.781 125.166 530.001 128.132 530.001 131.79C530.001 135.448 532.781 138.414 536.211 138.414Z" fill="#0B409C"/>
<path d="M401.339 179.354C400.327 177.744 398.671 179.262 397.981 180.366C396.555 182.666 395.635 185.518 396.693 188.14C397.475 190.118 399.407 191.774 401.661 191.452C403.731 191.176 405.295 189.474 405.249 187.404C405.249 186.852 404.467 186.438 404.053 186.898C401.615 189.98 398.625 194.35 401.063 198.306C402.765 201.02 406.951 201.388 408.607 198.444C408.193 198.398 407.779 198.352 407.365 198.26C407.595 199.548 407.825 200.836 408.009 202.124C408.147 202.998 409.481 202.63 409.343 201.756C409.113 200.468 408.883 199.18 408.699 197.892C408.607 197.294 407.687 197.248 407.457 197.708C406.721 198.996 405.065 199.456 403.731 198.812C402.259 198.076 401.615 196.42 401.615 194.81C401.615 192.142 403.501 189.796 405.065 187.818C404.651 187.634 404.283 187.496 403.869 187.312C403.915 189.06 402.213 190.348 400.511 189.98C399.223 189.704 398.395 188.6 397.935 187.404C397.475 186.162 397.521 184.92 397.889 183.678C397.935 183.586 399.821 179.492 400.097 179.952C400.603 180.78 401.799 180.09 401.339 179.354Z" fill="#EC615B"/>
<path d="M213.521 183.494C214.533 180.734 217.891 181.93 218.949 183.862C219.317 184.506 219.501 185.242 219.593 185.978C219.777 187.358 219.639 187.91 218.443 188.738C217.155 190.026 216.833 189.52 217.523 187.22C217.845 187.082 218.213 186.944 218.535 186.806C219.409 186.576 220.421 186.622 221.295 186.898C223.503 187.634 224.607 189.98 224.285 192.142C224.193 192.694 224.745 193.246 225.297 192.924C228.287 191.222 232.243 193.108 232.933 196.466C233.117 197.34 234.451 196.972 234.267 196.098C233.393 191.866 228.379 189.658 224.607 191.774C224.929 192.05 225.297 192.28 225.619 192.556C226.217 188.508 223.135 184.736 218.857 185.38C217.385 185.61 215.177 186.53 214.993 188.278C214.855 189.704 216.189 190.762 217.523 190.9C221.479 191.268 221.387 185.518 220.099 183.218C218.351 180.09 213.521 179.308 212.141 183.172C211.865 183.954 213.199 184.322 213.521 183.494Z" fill="#EC615B"/>
<path d="M455.711 356.638C459.253 358.984 462.243 361.974 464.635 365.47C465.141 366.206 466.337 365.516 465.831 364.78C463.301 361.1 460.173 357.972 456.447 355.488C455.665 354.936 454.975 356.132 455.711 356.638Z" fill="#5222D0"/>
<path d="M464.681 359.168C465.417 360.042 466.107 360.962 466.843 361.836C467.395 362.526 468.361 361.56 467.809 360.87C467.073 359.996 466.383 359.076 465.647 358.202C465.095 357.512 464.129 358.524 464.681 359.168Z" fill="#5222D0"/>
<path d="M460.449 346.288C463.623 349.232 466.245 352.59 468.269 356.408C468.683 357.19 469.879 356.5 469.465 355.718C467.395 351.808 464.681 348.312 461.415 345.322C460.771 344.678 459.805 345.69 460.449 346.288Z" fill="#5222D0"/>
<path d="M142.405 398.084C143.417 408.066 145.165 417.91 147.603 427.662C147.833 428.536 149.167 428.168 148.937 427.294C146.545 417.68 144.797 407.928 143.785 398.084C143.693 397.21 142.313 397.21 142.405 398.084Z" fill="#E8E8E8"/>
<path d="M147.879 428.122C156.941 430.468 166.371 430.468 175.433 428.122C176.307 427.892 175.939 426.558 175.065 426.788C166.233 429.088 157.079 429.088 148.247 426.788C147.419 426.558 147.051 427.892 147.879 428.122Z" fill="#E8E8E8"/>
<path d="M176.491 426.742C177.089 416.944 177.871 407.146 178.791 397.348C178.883 396.474 177.503 396.474 177.411 397.348C176.491 407.146 175.709 416.944 175.111 426.742C175.065 427.616 176.445 427.616 176.491 426.742Z" fill="#E8E8E8"/>
<path d="M143.187 398.82C154.641 401.166 166.417 401.074 177.871 398.498C178.745 398.314 178.377 396.98 177.503 397.164C166.325 399.648 154.779 399.786 143.555 397.486C142.681 397.302 142.313 398.636 143.187 398.82Z" fill="#E8E8E8"/>
<path d="M143.049 402.132C143.417 404.018 145.809 403.926 147.281 404.064C151.007 404.386 154.779 404.478 158.505 404.386C162.093 404.294 165.681 404.018 169.269 403.604C172.121 403.236 174.881 402.868 177.411 401.442C178.193 401.028 177.503 399.832 176.721 400.246C172.167 402.776 165.865 402.684 160.759 402.914C158.229 403.006 155.653 403.052 153.123 403.006C151.789 402.96 144.659 403.282 144.383 401.764C144.199 400.89 142.911 401.258 143.049 402.132Z" fill="#E8E8E8"/>
<path d="M145.671 418.094C147.879 422.004 150.685 425.454 154.043 428.444C154.687 429.042 155.699 428.076 155.009 427.478C151.697 424.58 148.983 421.222 146.867 417.404C146.453 416.622 145.257 417.312 145.671 418.094Z" fill="#E8E8E8"/>
<path d="M143.877 407.468C148.569 415.38 154.273 422.648 160.805 429.18C161.449 429.824 162.415 428.812 161.771 428.214C155.331 421.774 149.719 414.598 145.073 406.778C144.613 406.042 143.417 406.732 143.877 407.468Z" fill="#E8E8E8"/>
<path d="M151.559 404.156C156.435 412.85 162.093 421.084 168.487 428.766C169.039 429.456 170.005 428.49 169.453 427.8C163.151 420.21 157.539 412.068 152.755 403.466C152.341 402.684 151.145 403.374 151.559 404.156Z" fill="#E8E8E8"/>
<path d="M160.345 404.478C165.083 411.562 169.867 418.6 174.697 425.638C175.203 426.374 176.399 425.684 175.893 424.948C171.063 417.91 166.279 410.872 161.541 403.788C161.035 403.052 159.839 403.742 160.345 404.478Z" fill="#E8E8E8"/>
<path d="M167.705 404.064C170.097 407.928 172.673 411.7 175.341 415.38C175.847 416.07 177.043 415.38 176.537 414.69C173.869 411.01 171.293 407.238 168.901 403.374C168.441 402.638 167.245 403.328 167.705 404.064Z" fill="#E8E8E8"/>
<path d="M127.915 357.604C128.467 360.778 129.019 363.998 129.617 367.172C129.801 368.046 129.939 368.966 130.675 369.518C131.181 369.932 132.837 369.886 133.159 370.346C133.205 370.07 133.251 369.794 133.251 369.518C132.561 370.208 131.871 370.898 131.135 371.542C130.951 371.726 130.905 372.002 130.951 372.232C131.365 373.474 131.641 375.314 132.469 376.372C132.883 376.924 133.619 376.832 133.941 377.154C134.217 377.43 134.125 377.246 133.987 378.074C133.895 378.764 133.895 379.5 133.987 380.236C134.125 381.34 134.447 382.398 134.861 383.41C137.253 389.206 141.899 393.898 146.361 398.222C147.005 398.82 147.971 397.854 147.327 397.256C144.475 394.496 141.623 391.644 139.277 388.424C136.977 385.25 134.263 380.972 135.689 376.924C135.781 376.694 135.689 376.372 135.505 376.234C134.631 375.544 133.757 375.82 133.159 374.716C132.009 372.646 132.653 371.956 134.125 370.53C134.355 370.346 134.401 369.932 134.217 369.702C133.849 369.15 133.573 368.966 132.975 368.782C132.607 368.644 132.055 368.782 131.687 368.598C130.905 368.184 130.905 367.172 130.767 366.436C130.215 363.4 129.663 360.318 129.157 357.282C129.065 356.362 127.731 356.73 127.915 357.604Z" fill="#E8E8E8"/>
<path d="M128.927 357.42C146.867 363.4 159.149 380.144 159.517 399.096C159.517 399.97 160.897 399.97 160.897 399.096C160.529 379.546 147.833 362.296 129.295 356.086C128.467 355.81 128.099 357.144 128.927 357.42Z" fill="#E8E8E8"/>
<path d="M156.481 380.236C160.943 367.862 167.521 355.902 178.055 347.76C178.745 347.208 178.055 346.012 177.365 346.564C166.509 354.982 159.747 367.126 155.147 379.868C154.871 380.696 156.205 381.064 156.481 380.236Z" fill="#E8E8E8"/>
<path d="M176.859 347.484C177.181 351.716 177.549 355.948 177.871 360.226C177.963 361.1 179.343 361.1 179.251 360.226C178.929 355.994 178.561 351.762 178.239 347.484C178.193 346.61 176.813 346.61 176.859 347.484Z" fill="#E8E8E8"/>
<path d="M178.469 359.766C177.871 359.904 177.273 360.042 176.721 360.226C175.847 360.456 176.215 361.79 177.089 361.56C177.687 361.422 178.285 361.284 178.837 361.1C179.711 360.87 179.343 359.582 178.469 359.766Z" fill="#E8E8E8"/>
<path d="M176.031 361.468C176.215 362.342 176.951 362.894 177.779 362.986C178.147 363.032 178.469 362.664 178.469 362.296C178.469 361.882 178.147 361.652 177.779 361.606C177.917 361.606 177.779 361.606 177.733 361.606C177.687 361.606 177.595 361.56 177.687 361.606C177.641 361.56 177.595 361.56 177.549 361.514C177.457 361.468 177.641 361.606 177.503 361.468C177.457 361.422 177.457 361.422 177.411 361.376C177.503 361.468 177.411 361.376 177.411 361.33C177.365 361.284 177.365 361.192 177.365 361.284C177.365 361.238 177.319 361.146 177.319 361.1C177.227 360.732 176.813 360.502 176.491 360.64C176.123 360.732 175.939 361.1 176.031 361.468Z" fill="#E8E8E8"/>
<path d="M177.089 362.48C177.135 365.102 177.043 367.678 176.767 370.254C176.675 371.082 176.813 373.014 176.261 373.658C176.215 373.704 175.387 373.842 175.203 373.98C174.513 374.532 175.479 375.498 176.169 374.946C176.399 374.762 176.951 374.946 177.319 374.532C177.871 373.98 177.779 372.692 177.871 372.048C178.285 368.874 178.469 365.654 178.423 362.434C178.469 361.606 177.089 361.606 177.089 362.48Z" fill="#E8E8E8"/>
<path d="M174.651 375.176C176.123 376.924 175.709 379.822 175.571 381.938C175.387 384.376 174.973 386.63 173.777 388.746C172.075 391.874 169.683 394.496 168.441 397.9C168.119 398.728 169.453 399.096 169.775 398.268C171.431 393.806 175.249 390.494 176.399 385.802C177.227 382.444 178.009 377.062 175.617 374.21C175.065 373.566 174.099 374.532 174.651 375.176Z" fill="#E8E8E8"/>
<path d="M163.795 398.544C165.083 385.48 168.533 372.738 174.053 360.87C174.421 360.088 173.225 359.352 172.857 360.18C167.245 372.324 163.703 385.25 162.415 398.59C162.323 399.464 163.703 399.418 163.795 398.544Z" fill="#E8E8E8"/>
<path d="M136.655 365.102C144.705 375.222 150.593 386.86 154.043 399.28C154.273 400.154 155.607 399.786 155.377 398.912C151.835 386.216 145.809 374.44 137.621 364.136C137.069 363.446 136.103 364.412 136.655 365.102Z" fill="#E8E8E8"/>
<path d="M137.529 382.076C141.393 381.846 144.981 382.766 148.247 384.79C148.983 385.25 149.719 384.054 148.937 383.594C145.487 381.478 141.577 380.466 137.529 380.696C136.609 380.742 136.609 382.122 137.529 382.076Z" fill="#E8E8E8"/>
<path d="M145.947 375.912C145.671 373.382 145.993 370.944 146.959 368.552C147.281 367.724 145.947 367.356 145.625 368.184C144.613 370.668 144.291 373.244 144.567 375.912C144.659 376.786 146.039 376.786 145.947 375.912Z" fill="#E8E8E8"/>
<path d="M160.851 368.276C162.369 372.002 164.577 375.958 165.129 379.914C165.267 380.788 166.601 380.42 166.463 379.546C165.865 375.544 163.657 371.588 162.185 367.908C161.863 367.08 160.529 367.448 160.851 368.276Z" fill="#E8E8E8"/>
<path d="M169.315 372.646C170.649 371.128 171.937 369.334 173.639 368.184C175.065 367.218 176.629 366.574 177.733 365.24C178.285 364.55 177.319 363.584 176.767 364.274C175.571 365.7 173.823 366.298 172.397 367.402C170.833 368.598 169.637 370.208 168.349 371.68C167.751 372.37 168.717 373.336 169.315 372.646Z" fill="#E8E8E8"/>
<path d="M169.775 398.084C171.983 397.486 174.237 397.256 176.537 397.394C177.411 397.44 177.411 396.06 176.537 396.014C174.099 395.876 171.753 396.106 169.407 396.75C168.579 396.98 168.901 398.314 169.775 398.084Z" fill="#E8E8E8"/>
<path d="M169.591 398.636C172.167 398.866 174.651 398.544 177.135 397.762C177.963 397.486 177.595 396.152 176.767 396.428C174.421 397.164 172.029 397.44 169.591 397.256C168.717 397.21 168.717 398.59 169.591 398.636Z" fill="#E8E8E8"/>
<path d="M143.785 398.406C144.383 398.406 144.935 398.406 145.533 398.406C146.407 398.406 146.407 397.026 145.533 397.026C144.935 397.026 144.383 397.026 143.785 397.026C142.911 397.026 142.911 398.406 143.785 398.406Z" fill="#E8E8E8"/>
<path d="M177.503 409.538C192.085 409.538 206.713 409.538 221.295 409.538C222.169 409.538 222.169 408.158 221.295 408.158C206.713 408.158 192.085 408.158 177.503 408.158C176.629 408.158 176.629 409.538 177.503 409.538Z" fill="#E8E8E8"/>
<path d="M424.339 400.43C433.033 400.43 441.681 400.43 450.375 400.43C451.249 400.43 451.249 399.05 450.375 399.05C441.681 399.05 433.033 399.05 424.339 399.05C423.465 399.05 423.465 400.43 424.339 400.43Z" fill="#E8E8E8"/>
<path d="M503.275 401.258C540.765 401.258 578.255 401.258 615.745 401.258C626.417 401.258 637.089 401.258 647.761 401.258C648.635 401.258 648.635 399.878 647.761 399.878C610.271 399.878 572.781 399.878 535.291 399.878C524.619 399.878 513.947 399.878 503.275 399.878C502.401 399.878 502.401 401.258 503.275 401.258Z" fill="#E8E8E8"/>
<path d="M447.753 250.24C444.257 257.462 440.485 264.546 436.483 271.492C436.299 271.86 436.437 272.458 436.897 272.504C456.631 275.494 474.295 285.292 491.315 295.182C492.097 295.642 492.787 294.446 492.005 293.986C474.847 284.05 457.091 274.206 437.219 271.17C437.357 271.492 437.495 271.86 437.633 272.182C441.681 265.236 445.407 258.152 448.903 250.93C449.317 250.148 448.167 249.412 447.753 250.24Z" fill="#E8E8E8"/>
<path d="M450.789 275.31C452.169 271.354 453.549 267.352 454.929 263.396C455.527 261.74 455.941 259.9 456.723 258.29C456.907 257.324 457.505 256.588 458.425 256.036C458.977 256.174 459.529 256.312 460.081 256.45C460.909 256.68 461.737 256.864 462.519 257.094C464.405 257.554 467.441 257.554 467.119 260.084C466.889 261.878 465.831 263.81 465.233 265.558C463.853 269.468 462.519 273.378 461.139 277.288C460.863 278.116 462.197 278.484 462.473 277.656C464.267 272.504 466.061 267.306 467.855 262.154C468.269 260.958 469.419 258.934 468.499 257.646C467.487 256.266 464.451 256.174 462.887 255.76C461.369 255.392 458.701 254.012 457.137 254.748C455.803 255.346 455.527 257.646 455.113 258.796C453.227 264.178 451.341 269.606 449.455 274.988C449.179 275.77 450.513 276.138 450.789 275.31Z" fill="#E8E8E8"/>
<path d="M468.545 280.232C471.489 274.022 474.479 267.766 477.423 261.556C478.895 258.428 480.367 255.346 481.885 252.218C482.575 250.792 483.127 249.09 484.001 247.756C484.737 246.606 484.921 246.33 486.209 246.836C486.899 247.112 487.727 247.802 488.325 248.216C489.107 248.768 490.349 249.366 490.901 250.102C491.591 250.976 491.315 251.896 490.901 253C490.349 254.472 489.521 255.898 488.831 257.324C487.313 260.452 485.795 263.58 484.185 266.708C481.149 272.642 477.975 278.53 474.709 284.372C474.249 285.154 475.445 285.844 475.905 285.062C479.907 277.978 483.725 270.802 487.313 263.534C489.107 259.946 491.085 256.266 492.603 252.54C493.661 249.826 491.361 248.722 489.337 247.296C487.727 246.192 485.197 243.662 483.449 245.732C482.345 247.02 481.747 249.182 481.011 250.746C480.091 252.632 479.217 254.518 478.297 256.45C474.617 264.178 470.937 271.906 467.303 279.634C466.981 280.324 468.177 281.06 468.545 280.232Z" fill="#E8E8E8"/>
<path d="M483.817 289.8C487.773 283.59 492.235 277.702 497.157 272.274C496.881 272.32 496.605 272.366 496.329 272.366C498.077 273.562 499.779 274.712 501.527 275.908C501.435 275.586 501.343 275.264 501.297 274.942C497.387 281.06 493.477 287.132 489.567 293.25C489.107 293.986 490.257 294.676 490.763 293.94C494.673 287.822 498.583 281.75 502.493 275.632C502.723 275.31 502.539 274.896 502.263 274.666C500.515 273.47 498.813 272.32 497.065 271.124C496.835 270.94 496.421 271.032 496.237 271.216C491.223 276.782 486.669 282.716 482.667 289.018C482.161 289.892 483.357 290.582 483.817 289.8Z" fill="#E8E8E8"/>
<path d="M538.695 246.054C534.095 244.306 531.197 239.706 532.025 234.784C532.853 229.77 537.775 225.308 542.835 228.298C546.331 230.368 548.125 235.06 546.791 238.878C545.411 242.972 540.903 245.41 536.717 244.766C535.843 244.628 535.475 245.962 536.349 246.1C541.271 246.836 546.469 244.122 548.125 239.246C549.781 234.37 547.113 228.482 542.329 226.504C536.717 224.204 531.611 229.034 530.645 234.416C529.633 240.12 532.991 245.364 538.281 247.388C539.155 247.71 539.523 246.376 538.695 246.054Z" fill="#E8E8E8"/>
<path d="M548.125 245.18C538.971 244.904 542.421 230.23 550.517 230.782C558.613 231.38 555.301 247.894 546.423 244.858C545.595 244.582 545.227 245.916 546.055 246.192C556.313 249.688 560.913 231.012 551.115 229.448C546.331 228.666 542.007 233.174 541.271 237.636C540.535 242.052 543.525 246.376 548.125 246.514C548.999 246.606 548.999 245.226 548.125 245.18Z" fill="#E8E8E8"/>
<path d="M541.271 203.55C540.489 202.722 540.121 201.388 540.719 200.376C541.317 199.41 542.789 198.95 543.709 199.686C544.537 200.33 544.721 201.71 543.939 202.4C543.019 203.228 541.547 202.814 540.673 202.124C539.983 201.572 539.017 202.538 539.707 203.09C541.133 204.194 543.341 204.746 544.859 203.412C546.239 202.17 546.101 199.87 544.721 198.674C543.295 197.432 541.041 197.8 539.845 199.18C538.511 200.744 538.879 203.09 540.259 204.516C540.903 205.16 541.869 204.194 541.271 203.55Z" fill="#E8E8E8"/>
<path d="M407.779 238.188C406.491 230.368 411.045 220.938 419.877 221.03C424.385 221.076 428.755 222.916 433.309 222.272C436.529 221.812 439.289 219.972 441.221 217.442C443.153 214.912 444.257 211.738 444.441 208.564C444.671 203.872 442.877 199.088 444.165 194.442C444.809 192.096 446.189 189.934 448.535 189.06C450.789 188.278 453.227 188.738 455.573 188.646C458.977 188.508 461.645 187.036 463.347 184.046C465.739 179.86 465.187 174.846 466.843 170.43C468.821 165.094 474.387 160.54 480.275 163.162C481.057 163.53 481.793 162.334 480.965 161.966C472.961 158.378 466.291 165.6 464.727 172.868C463.715 177.606 463.899 184.966 458.241 186.852C454.285 188.186 449.823 186.116 446.189 188.83C443.199 191.038 442.325 195.086 442.371 198.628C442.509 203.826 444.119 208.886 441.819 213.854C439.703 218.546 435.517 221.352 430.319 221.03C425.719 220.754 421.165 218.868 416.519 220.064C408.653 222.042 405.295 231.334 406.537 238.602C406.629 239.384 407.963 239.016 407.779 238.188Z" fill="#E8E8E8"/>
<path d="M465.923 205.39C464.221 201.526 466.567 197.846 470.293 196.604C473.007 195.684 475.997 195.638 478.343 193.798C480.183 192.372 480.781 190.578 480.551 188.278C480.321 186.116 480.321 184.414 482.023 182.942C483.449 181.7 485.335 181.24 487.175 181.148C492.235 180.964 499.181 183.54 502.861 178.618C504.563 176.318 504.057 173.466 504.839 170.89C505.897 167.302 509.347 165.094 513.027 165.278C513.901 165.324 513.901 163.944 513.027 163.898C510.221 163.76 507.507 164.818 505.575 166.842C503.183 169.372 503.505 172.224 502.769 175.398C500.791 184.092 488.693 177.974 482.989 180.688C480.873 181.7 479.171 183.494 478.987 185.886C478.757 188.692 480.045 190.992 477.193 192.924C475.675 193.936 473.927 194.258 472.179 194.672C469.281 195.362 466.429 196.236 464.957 199.042C463.761 201.25 463.761 203.78 464.773 206.034C465.095 206.908 466.245 206.172 465.923 205.39Z" fill="#E8E8E8"/>
<path d="M547.895 144.118C547.711 143.704 547.527 143.244 547.389 142.784C547.987 142.094 548.539 141.404 549.137 140.714C549.321 140.668 550.149 141.22 550.425 141.22C551.115 141.312 551.713 141.128 552.265 140.714C553.967 139.38 553.369 137.264 553.875 135.47C554.703 132.388 558.337 134.504 559.993 132.204C561.649 129.95 561.051 125.166 565.467 126.454C566.341 126.684 566.709 125.35 565.835 125.12C563.305 124.384 561.005 125.58 560.085 128.018C559.809 128.708 559.717 129.49 559.441 130.18C558.843 131.79 558.199 132.02 556.451 132.112C555.163 132.204 554.151 132.112 553.277 133.216C552.541 134.182 552.541 135.424 552.403 136.574C552.265 138.276 552.403 139.702 549.873 139.518C549.367 139.472 548.953 139.012 548.401 139.012C545.365 138.966 545.871 142.692 546.607 144.486C546.883 145.314 548.263 144.946 547.895 144.118Z" fill="#E8E8E8"/>
<path d="M556.543 147.936C555.807 146.97 554.565 144.164 556.727 143.428C557.509 143.152 558.521 143.474 559.349 143.474C560.085 143.474 560.729 143.474 561.327 142.968C563.167 141.496 561.833 138.874 562.799 137.034C564.363 134.044 567.491 136.39 569.699 134.826C571.263 133.722 571.677 131.606 571.953 129.858C572.091 128.984 570.757 128.616 570.619 129.49C570.297 131.56 569.929 133.86 567.353 134.09C566.019 134.228 565.007 133.768 563.765 134.366C561.741 135.332 561.097 137.126 561.051 139.196C561.005 140.944 561.419 141.818 558.475 141.956C558.107 141.956 557.739 141.864 557.371 141.864C556.313 141.956 555.393 142.508 554.795 143.382C553.507 145.222 554.243 147.338 555.531 148.948C556.129 149.638 557.095 148.626 556.543 147.936Z" fill="#E8E8E8"/>
<path d="M165.451 172.868C169.269 168.268 174.697 164.496 180.953 165.14C187.761 165.83 191.119 171.258 191.763 177.606C192.867 188.14 190.291 200.744 197.421 209.714C200.227 213.256 204.413 215.142 208.921 214.038C214.349 212.75 218.581 208.472 223.411 205.942C229.115 202.952 236.981 201.342 242.133 206.356C245.905 210.036 246.733 215.648 247.975 220.524C249.125 224.94 251.103 229.816 255.059 232.438C257.451 234.002 260.073 234.14 262.833 233.956C265.915 233.726 272.217 233.542 271.573 238.372C271.481 239.246 272.861 239.246 272.953 238.372C273.183 236.486 272.309 234.968 270.791 233.864C268.399 232.116 265.639 232.392 262.833 232.576C259.659 232.806 256.945 232.53 254.507 230.276C252.299 228.252 250.965 225.4 249.999 222.594C248.389 217.764 247.929 212.474 245.169 208.058C242.455 203.688 237.763 201.572 232.703 201.756C226.309 201.986 220.927 205.666 215.821 209.07C213.383 210.68 210.761 212.382 207.771 212.888C204.183 213.486 201.009 211.922 198.709 209.254C194.385 204.194 193.695 196.972 193.465 190.624C193.235 184.69 194.017 178.25 192.039 172.5C190.245 167.256 185.691 163.99 180.217 163.714C173.869 163.392 168.303 167.21 164.393 171.902C163.887 172.592 164.853 173.558 165.451 172.868Z" fill="#E8E8E8"/>
<path d="M142.221 243.846C149.397 255.806 155.791 268.18 161.449 280.922C161.817 281.75 163.013 281.014 162.645 280.232C156.987 267.49 150.547 255.116 143.417 243.156C142.957 242.374 141.761 243.064 142.221 243.846Z" fill="#E8E8E8"/>
<path d="M143.095 243.294C154.273 236.348 165.773 229.862 177.595 223.974C178.377 223.56 177.687 222.364 176.905 222.778C165.129 228.666 153.629 235.152 142.405 242.098C141.623 242.604 142.313 243.8 143.095 243.294Z" fill="#E8E8E8"/>
<path d="M176.767 223.376C182.609 235.658 188.773 247.756 195.305 259.67C195.719 260.452 196.915 259.762 196.501 258.98C189.969 247.066 183.759 234.968 177.963 222.686C177.549 221.858 176.399 222.548 176.767 223.376Z" fill="#E8E8E8"/>
<path d="M163.013 281.198C174.007 274.574 184.863 267.766 195.627 260.774C196.363 260.314 195.673 259.118 194.937 259.578C184.173 266.57 173.317 273.378 162.323 280.002C161.587 280.462 162.277 281.658 163.013 281.198Z" fill="#E8E8E8"/>
<path d="M162.139 239.246C161.863 248.078 162.369 256.864 163.657 265.604C163.795 266.478 165.129 266.11 164.991 265.236C163.703 256.634 163.243 247.94 163.519 239.246C163.565 238.372 162.185 238.372 162.139 239.246Z" fill="#E8E8E8"/>
<path d="M162.185 238.786C168.579 243.8 174.973 248.722 181.459 253.598C182.149 254.15 182.839 252.954 182.149 252.402C175.755 247.618 169.407 242.742 163.151 237.82C162.461 237.268 161.495 238.234 162.185 238.786Z" fill="#E8E8E8"/>
<path d="M165.083 265.88C170.373 261.142 177.273 258.612 182.287 253.506C182.931 252.862 181.919 251.896 181.321 252.54C176.307 257.6 169.453 260.176 164.117 264.914C163.427 265.466 164.439 266.432 165.083 265.88Z" fill="#E8E8E8"/>
<path d="M144.061 251.068C145.533 250.332 147.005 249.642 148.477 248.906C149.259 248.538 148.569 247.342 147.787 247.71C146.315 248.446 144.843 249.136 143.371 249.872C142.589 250.286 143.279 251.436 144.061 251.068Z" fill="#E8E8E8"/>
<path d="M148.799 258.888C150.041 258.06 151.375 257.37 152.755 256.772C153.583 256.45 153.215 255.116 152.387 255.438C150.869 256.082 149.443 256.818 148.063 257.692C147.373 258.198 148.063 259.394 148.799 258.888Z" fill="#E8E8E8"/>
<path d="M153.997 267.904C155.285 267.26 156.573 266.616 157.861 266.018C158.643 265.604 157.953 264.454 157.171 264.822C155.883 265.466 154.595 266.11 153.307 266.708C152.525 267.076 153.215 268.272 153.997 267.904Z" fill="#E8E8E8"/>
<path d="M156.665 276.92C158.091 275.678 159.563 274.62 161.219 273.7C162.001 273.24 161.311 272.09 160.529 272.504C158.827 273.47 157.217 274.62 155.699 275.954C155.009 276.552 155.975 277.518 156.665 276.92Z" fill="#E8E8E8"/>
<path d="M179.389 232.438C180.447 231.702 181.551 231.196 182.793 230.874C183.667 230.644 183.299 229.356 182.425 229.54C181.091 229.862 179.803 230.414 178.653 231.242C177.963 231.748 178.653 232.944 179.389 232.438Z" fill="#E8E8E8"/>
<path d="M183.483 240.304C184.955 239.384 186.427 238.464 187.853 237.498C188.589 237.038 187.899 235.842 187.163 236.302C185.691 237.222 184.219 238.142 182.793 239.108C182.011 239.614 182.701 240.81 183.483 240.304Z" fill="#E8E8E8"/>
<path d="M188.175 249.734C189.739 249.044 191.349 248.354 192.913 247.664C193.741 247.296 193.005 246.1 192.223 246.468C190.659 247.158 189.049 247.848 187.485 248.538C186.657 248.906 187.393 250.102 188.175 249.734Z" fill="#E8E8E8"/>
<path d="M191.533 255.898C192.775 254.702 194.155 253.69 195.673 252.816C196.455 252.402 195.765 251.206 194.983 251.62C193.373 252.54 191.901 253.598 190.567 254.886C189.923 255.53 190.889 256.496 191.533 255.898Z" fill="#E8E8E8"/>
<path d="M166.923 275.126C168.073 276.828 169.039 278.622 169.775 280.508C170.097 281.336 171.431 280.968 171.109 280.14C170.327 278.116 169.361 276.184 168.119 274.39C167.613 273.7 166.417 274.39 166.923 275.126Z" fill="#E8E8E8"/>
<path d="M173.961 271.308C174.835 272.872 175.663 274.39 176.537 275.954C176.951 276.736 178.147 276.046 177.733 275.264C176.859 273.7 176.031 272.182 175.157 270.618C174.743 269.836 173.547 270.526 173.961 271.308Z" fill="#E8E8E8"/>
<path d="M182.103 265.466C183.023 267.122 183.943 268.778 184.863 270.434C185.277 271.216 186.473 270.526 186.059 269.744C185.139 268.088 184.219 266.432 183.299 264.776C182.885 263.994 181.689 264.684 182.103 265.466Z" fill="#E8E8E8"/>
<path d="M189.417 261.096C190.153 262.844 190.889 264.592 191.671 266.294C192.039 267.122 193.189 266.386 192.867 265.604C192.131 263.856 191.395 262.108 190.613 260.406C190.245 259.624 189.049 260.314 189.417 261.096Z" fill="#E8E8E8"/>
<path d="M147.695 236.21C148.569 237.636 149.397 239.062 150.271 240.442C150.731 241.224 151.927 240.488 151.467 239.752C150.593 238.326 149.765 236.9 148.891 235.52C148.431 234.784 147.235 235.474 147.695 236.21Z" fill="#E8E8E8"/>
<path d="M155.607 231.61C156.435 233.45 157.263 235.29 158.091 237.13C158.459 237.958 159.655 237.222 159.287 236.44C158.459 234.6 157.631 232.76 156.803 230.92C156.389 230.092 155.239 230.782 155.607 231.61Z" fill="#E8E8E8"/>
<path d="M162.737 227.194C163.979 228.85 164.945 230.644 165.589 232.576C165.865 233.404 167.199 233.036 166.923 232.208C166.233 230.138 165.267 228.206 163.933 226.504C163.427 225.814 162.231 226.458 162.737 227.194Z" fill="#E8E8E8"/>
<path d="M170.419 223.652C171.385 225.124 172.305 226.55 173.271 228.022C173.731 228.758 174.927 228.068 174.467 227.332C173.501 225.86 172.581 224.434 171.615 222.962C171.109 222.226 169.913 222.916 170.419 223.652Z" fill="#E8E8E8"/>
<path d="M241.949 132.434C237.487 131.054 237.257 126.316 239.373 122.774C241.443 119.324 245.445 118.404 248.573 121.256C251.149 123.648 251.379 127.742 248.987 130.364C246.595 133.032 242.685 132.986 239.925 130.962C239.235 130.41 238.545 131.606 239.235 132.158C242.731 134.734 247.837 134.32 250.459 130.686C253.173 127.006 252.207 121.854 248.389 119.37C239.189 113.436 231.277 130.548 241.581 133.768C242.455 134.044 242.823 132.71 241.949 132.434Z" fill="#E8E8E8"/>
<path d="M249.355 133.63C245.905 134.688 245.077 130.548 246.595 128.34C247.837 126.546 250.275 125.488 252.483 126.086C254.599 126.638 256.117 128.8 255.565 130.962C254.875 133.676 252.023 134.642 249.493 134.228C248.619 134.09 248.251 135.424 249.125 135.562C252.529 136.16 256.209 134.688 256.945 131.008C257.589 127.834 255.105 124.936 252.023 124.568C248.619 124.154 244.893 126.638 244.433 130.134C244.019 133.17 246.779 135.884 249.815 134.918C250.597 134.688 250.229 133.354 249.355 133.63Z" fill="#E8E8E8"/>
<path d="M220.007 163.576C218.903 165.83 220.467 168.084 222.767 168.682C224.515 169.142 226.355 168.728 228.149 168.82C230.081 168.912 232.013 169.372 233.761 170.154C237.625 171.902 240.109 175.076 240.247 179.354C240.385 182.942 239.327 186.668 240.891 190.072C244.203 197.248 253.311 191.774 258.003 196.42C261.913 200.33 260.303 207.46 265.547 210.45C266.329 210.91 267.019 209.714 266.237 209.254C261.545 206.586 262.649 199.64 259.337 195.776C257.589 193.752 255.059 193.2 252.483 193.016C249.355 192.832 245.307 193.476 243.007 190.808C240.339 187.68 241.765 182.988 241.627 179.308C241.535 176.41 240.569 173.788 238.545 171.718C236.751 169.924 234.405 168.682 231.967 168.038C230.725 167.716 229.437 167.486 228.149 167.44C226.493 167.348 219.317 168.176 221.249 164.266C221.617 163.484 220.421 162.794 220.007 163.576Z" fill="#E8E8E8"/>
<path d="M112.459 411.884C120.785 411.884 129.065 411.884 137.391 411.884C138.265 411.884 138.265 410.504 137.391 410.504C129.065 410.504 120.785 410.504 112.459 410.504C111.539 410.504 111.539 411.884 112.459 411.884Z" fill="#E8E8E8"/>
<path d="M125.891 443.072C141.899 443.072 157.861 443.072 173.869 443.072C174.743 443.072 174.743 441.692 173.869 441.692C157.861 441.692 141.899 441.692 125.891 441.692C124.971 441.692 124.971 443.072 125.891 443.072Z" fill="#E8E8E8"/>
<path d="M171.937 434.424C186.795 434.424 201.699 434.424 216.557 434.424C217.431 434.424 217.431 433.044 216.557 433.044C201.699 433.044 186.795 433.044 171.937 433.044C171.017 433.044 171.017 434.424 171.937 434.424Z" fill="#E8E8E8"/>
<path d="M419.371 432.032C426.869 430.192 434.413 430.008 442.049 431.204C445.269 431.71 448.535 432.216 451.801 431.94C454.975 431.664 458.057 430.698 461.139 429.87C464.635 428.904 468.131 428.168 471.811 428.444C475.583 428.72 479.217 429.778 482.897 430.606C486.071 431.342 489.291 431.848 492.557 431.802C496.007 431.71 499.411 431.112 502.769 430.606C511.969 429.134 520.617 430.054 529.725 431.572C530.599 431.71 530.967 430.376 530.093 430.238C522.733 429.042 515.327 427.8 507.829 428.536C500.009 429.318 492.741 431.25 484.829 429.64C478.205 428.306 471.903 426.236 465.095 427.524C461.461 428.214 458.011 429.502 454.377 430.192C450.329 430.974 446.419 430.514 442.371 429.87C434.505 428.674 426.731 428.766 418.957 430.698C418.175 430.928 418.543 432.262 419.371 432.032Z" fill="#E8E8E8"/>
<path d="M490.027 418.048C504.471 417.266 518.915 416.484 533.359 415.748C540.489 415.38 547.389 415.518 554.473 416.484C557.647 416.898 560.683 416.99 563.857 416.622C567.399 416.208 571.079 415.656 574.391 417.358C575.173 417.772 575.863 416.576 575.081 416.162C569.469 413.31 562.983 415.978 556.957 415.426C553.369 415.104 549.873 414.414 546.285 414.23C542.559 414.046 538.833 414.138 535.107 414.322C520.065 415.012 505.023 415.932 489.981 416.714C489.153 416.714 489.153 418.094 490.027 418.048Z" fill="#E8E8E8"/>
<path d="M207.173 457.562C213.981 458.206 220.835 458.85 227.643 458.068C230.817 457.7 233.853 457.01 236.935 456.09C240.937 454.894 244.525 454.572 248.665 455.308C251.839 455.86 254.967 456.642 258.141 456.918C261.499 457.194 264.857 457.01 268.215 456.688C275.253 455.998 282.291 454.802 289.283 456.366C290.157 456.55 290.525 455.216 289.651 455.032C282.935 453.56 276.219 454.526 269.457 455.216C266.099 455.538 262.741 455.86 259.383 455.676C255.565 455.492 251.885 454.48 248.159 453.882C245.031 453.376 242.041 453.376 238.959 454.112C235.647 454.94 232.519 456.044 229.115 456.55C221.847 457.608 214.441 456.872 207.173 456.228C206.253 456.09 206.299 457.47 207.173 457.562Z" fill="#E8E8E8"/>
<path d="M279.945 86.388C278.151 85.146 275.713 83.168 276.449 80.684C277.231 78.108 279.163 79.35 280.957 78.752C283.349 77.97 283.211 75.072 282.521 73.186C281.831 71.346 280.359 66.884 284.177 68.402C285.051 68.77 285.695 69.368 286.707 69.046C287.627 68.77 288.087 67.942 288.317 67.068C288.501 66.286 288.363 65.458 288.317 64.63C288.225 64.078 288.179 63.48 288.179 62.928C287.995 61.594 288.823 61.042 290.571 61.272C290.617 62.146 291.997 62.146 291.951 61.272C291.859 59.984 290.893 59.064 289.513 59.11C287.903 59.156 287.029 60.72 286.845 62.192C286.707 63.204 287.535 65.55 287.075 66.378C286.523 66.746 285.971 67.16 285.373 67.528C285.143 67.39 284.913 67.252 284.683 67.114C284.269 66.976 283.947 66.7 283.533 66.608C282.107 66.286 280.957 67.16 280.451 68.448C279.577 70.656 281.141 72.496 281.601 74.566C282.199 77.418 280.037 77.096 278.151 77.418C277.323 77.556 276.633 77.97 276.081 78.568C273.183 81.926 276.541 85.652 279.301 87.584C279.991 88.09 280.681 86.894 279.945 86.388Z" fill="#E8E8E8"/>
<path d="M289.007 85.1001C287.489 83.3521 286.339 80.9601 289.283 80.0401C290.019 79.8101 290.847 79.9021 291.537 79.4421C293.055 78.3841 292.411 76.9581 292.135 75.4861C291.997 74.6581 291.675 73.5541 292.181 72.7261C292.549 72.1281 293.883 71.8981 294.573 71.7601C295.539 71.5301 296.551 71.3921 297.379 70.8401C298.621 69.9661 299.081 68.4021 298.253 67.0681C297.793 66.3321 296.597 67.0221 297.057 67.7581C298.437 69.9661 291.997 70.5641 290.893 72.1741C289.605 74.0601 292.319 77.3721 290.065 78.5681C289.191 79.0281 288.087 78.7061 287.259 79.3041C286.661 79.7181 286.247 80.3621 286.063 81.0521C285.557 83.0301 286.891 84.7321 288.087 86.1121C288.639 86.7561 289.605 85.7901 289.007 85.1001Z" fill="#E8E8E8"/>
<path d="M234.681 74.1981C233.485 73.3701 233.347 71.8981 233.715 70.6101C233.945 69.7361 235.049 67.3441 236.107 67.2521C237.855 67.0681 238.729 69.2761 239.189 70.5641C239.603 71.8061 239.741 73.0481 239.787 74.3361C239.787 75.2101 241.167 75.2101 241.167 74.3361C241.121 71.7601 239.419 63.8481 235.187 66.1481C233.577 67.0221 232.381 69.5521 232.197 71.3001C232.013 72.9561 232.657 74.4281 233.991 75.3941C234.681 75.9001 235.371 74.7041 234.681 74.1981Z" fill="#E8E8E8"/>
<path d="M234.129 74.9341C232.473 75.3481 230.817 75.7621 229.115 76.1761C228.149 76.4061 226.493 76.4981 225.711 77.2341C224.377 78.4761 224.745 82.2941 224.745 83.9041C224.745 84.3641 225.205 84.6861 225.619 84.5481C225.849 84.5021 226.079 84.4101 226.355 84.3641C227.551 83.7201 228.149 84.1341 228.195 85.5141C229.115 86.4341 229.115 86.9861 228.195 87.0781C227.643 87.3081 227.091 87.4001 226.493 87.4001C226.125 87.4461 225.803 87.6761 225.803 88.0901C225.895 91.0341 226.125 93.9321 226.447 96.8761C226.539 97.7501 227.919 97.7501 227.827 96.8761C227.505 93.9321 227.275 91.0341 227.183 88.0901C226.953 88.3201 226.723 88.5501 226.493 88.7801C228.425 88.5501 231.507 87.7681 231.093 85.1461C230.633 82.3401 227.229 82.6621 225.297 83.2141C225.573 83.4441 225.895 83.6741 226.171 83.8581C226.171 82.8001 226.171 81.7881 226.263 80.7301C226.401 79.0741 226.309 78.4761 227.827 77.8781C229.897 77.0501 232.335 76.7741 234.497 76.2221C235.371 76.0841 235.003 74.7501 234.129 74.9341Z" fill="#E8E8E8"/>
<path d="M240.753 75.348C242.685 75.256 244.663 75.256 246.595 75.486C248.435 75.716 248.343 75.992 248.619 77.602C248.803 78.614 248.849 79.672 248.941 80.684C249.309 84.64 249.585 88.596 249.815 92.552C249.861 93.426 251.241 93.426 251.195 92.552C250.919 87.17 250.735 81.65 249.861 76.314C249.631 74.98 249.401 74.566 248.021 74.336C245.629 73.876 243.145 73.876 240.753 74.014C239.879 74.014 239.879 75.394 240.753 75.348Z" fill="#E8E8E8"/>
<path d="M227.459 97.842C230.173 97.382 232.887 96.922 235.555 96.462C238.637 95.956 241.581 96.186 244.663 95.956C246.089 95.818 252.851 95.128 250.367 92.322C249.769 91.678 248.803 92.644 249.401 93.288C249.769 93.702 243.513 94.622 243.375 94.622C241.443 94.668 239.511 94.576 237.579 94.806C234.083 95.22 230.587 95.956 227.091 96.554C226.217 96.646 226.585 97.98 227.459 97.842Z" fill="#E8E8E8"/>
<path d="M471.811 362.756C471.673 367.586 471.535 372.416 471.397 377.292C477.515 377.706 483.587 378.074 489.705 378.488C489.705 373.52 489.705 368.552 489.705 363.584C483.725 363.308 477.791 363.032 471.811 362.756Z" fill="white" stroke="#161616" stroke-width="2" stroke-miterlimit="10"/>
<path d="M479.769 416.438C480.597 421.774 480.965 426.19 481.149 429.364C481.747 439.898 481.287 442.336 480.367 444.268C478.113 449.006 474.019 450.984 474.387 451.628C474.663 452.042 476.687 451.582 485.703 446.844C485.151 436.356 484.645 425.914 484.093 415.426C482.667 415.794 481.241 416.116 479.769 416.438Z" fill="white" stroke="#161616" stroke-width="2" stroke-miterlimit="10"/>
<path d="M467.855 382.628C475.675 382.674 483.495 382.766 491.315 382.812C490.441 393.3 489.613 403.742 488.739 414.23C481.931 413.678 475.077 413.172 468.269 412.62C468.085 402.638 467.947 392.656 467.855 382.628Z" fill="white" stroke="#161616" stroke-width="2" stroke-miterlimit="10"/>
<path d="M471.029 416.07C473.513 422.096 474.341 427.294 474.617 430.79C475.031 435.942 475.307 439.898 472.823 442.52C471.903 443.532 470.385 444.498 467.441 446.476C464.819 448.224 463.577 448.868 463.669 449.052C463.807 449.328 466.337 448.776 477.377 444.866C478.113 441.14 478.711 436.356 478.573 430.744C478.389 424.764 477.423 419.658 476.365 415.84C474.617 415.932 472.823 415.978 471.029 416.07Z" fill="white" stroke="#161616" stroke-width="2" stroke-miterlimit="10"/>
<path d="M475.031 452.042C476.411 450.892 477.699 449.65 478.941 448.316C480.367 446.752 482.483 444.36 484.691 446.43C484.737 446.062 484.783 445.694 484.829 445.326C481.563 446.936 478.343 448.546 475.077 450.11C474.433 450.432 474.755 451.398 475.445 451.398C478.527 451.444 480.459 446.062 483.633 447.074C484.461 447.35 484.829 446.016 484.001 445.74C482.621 445.326 481.563 445.694 480.413 446.522C479.079 447.488 477.193 450.018 475.491 450.018C475.629 450.432 475.721 450.892 475.859 451.306C479.125 449.696 482.345 448.086 485.611 446.522C486.025 446.338 486.071 445.74 485.749 445.418C484.507 444.268 482.299 443.854 480.735 444.59C479.585 445.096 478.849 446.43 478.021 447.304C476.779 448.638 475.491 449.834 474.111 451.03C473.375 451.628 474.341 452.64 475.031 452.042Z" fill="#161616"/>
<path d="M480.689 444.866C482.069 444.912 483.403 445.188 484.691 445.74C485.473 446.108 486.209 444.912 485.381 444.544C483.863 443.854 482.345 443.486 480.689 443.44C479.815 443.486 479.815 444.866 480.689 444.866Z" fill="#161616"/>
<path d="M473.145 443.256C474.203 443.532 475.123 444.084 475.859 444.912C476.457 445.556 477.423 444.59 476.825 443.946C475.905 442.98 474.755 442.29 473.467 441.968C472.685 441.692 472.317 443.026 473.145 443.256Z" fill="#161616"/>
<path d="M465.693 448.822C467.119 447.764 468.591 446.798 470.109 445.878C470.799 445.464 471.535 444.912 472.271 444.682C473.421 444.268 474.111 444.544 475.169 445.004C475.169 444.59 475.169 444.222 475.169 443.808C473.697 444.452 472.041 444.406 470.523 445.05C469.051 445.648 467.671 447.12 466.153 447.396C466.337 447.81 466.521 448.224 466.705 448.638C469.419 447.304 472.455 447.074 475.169 445.74C475.951 445.326 475.261 444.176 474.479 444.544C471.765 445.878 468.729 446.108 466.015 447.442C465.279 447.81 465.831 448.822 466.567 448.684C468.223 448.408 469.557 446.89 471.121 446.292C472.685 445.694 474.387 445.648 475.905 445.004C476.365 444.82 476.365 443.992 475.905 443.808C474.157 443.026 473.375 442.566 471.627 443.486C469.327 444.682 467.165 446.108 465.095 447.626C464.267 448.132 464.957 449.328 465.693 448.822Z" fill="#161616"/>
<path d="M473.559 423.108C474.709 422.694 475.859 422.74 476.917 423.292C477.699 423.706 478.389 422.51 477.607 422.096C476.227 421.36 474.663 421.222 473.191 421.774C472.363 422.096 472.731 423.43 473.559 423.108Z" fill="#161616"/>
<path d="M474.709 427.708C475.675 427.616 476.595 427.846 477.331 428.49C478.021 429.042 478.987 428.076 478.297 427.524C477.285 426.696 476.043 426.236 474.709 426.328C473.835 426.374 473.835 427.754 474.709 427.708Z" fill="#161616"/>
<path d="M475.215 433.458C476.089 433.366 476.917 433.688 477.423 434.424C477.883 435.16 479.079 434.47 478.619 433.734C477.929 432.584 476.595 431.894 475.261 432.078C474.893 432.124 474.571 432.354 474.571 432.768C474.525 433.09 474.847 433.504 475.215 433.458Z" fill="#161616"/>
<path d="M481.149 422.786C481.977 422.326 483.035 422.372 483.817 423.016C484.507 423.568 485.473 422.602 484.783 422.05C483.541 421.038 481.885 420.808 480.459 421.59C479.677 422.05 480.367 423.246 481.149 422.786Z" fill="#161616"/>
<path d="M481.931 431.48C482.667 431.158 483.495 431.296 484.093 431.848C484.737 432.446 485.749 431.48 485.059 430.882C484.001 429.916 482.529 429.686 481.195 430.33C480.413 430.652 481.149 431.848 481.931 431.48Z" fill="#161616"/>
<path d="M482.115 438.84C482.851 438.38 483.771 438.38 484.461 438.932C485.151 439.484 486.117 438.518 485.427 437.966C484.277 437 482.667 436.862 481.425 437.69C480.689 438.15 481.379 439.346 482.115 438.84Z" fill="#161616"/>
<path d="M492.419 382.766C491.499 393.346 490.579 403.926 489.659 414.506" stroke="#161616" stroke-width="6" stroke-miterlimit="10"/>
<path d="M468.131 413.034C475.813 413.586 483.495 414.092 491.177 414.644" stroke="#161616" stroke-width="6" stroke-miterlimit="10"/>
<path d="M491.223 363.17C491.039 368.414 490.809 373.612 490.625 378.856" stroke="#161616" stroke-width="6" stroke-miterlimit="10"/>
<path d="M492.189 388.976C496.467 388.194 501.021 391.552 501.343 395.968C501.803 401.488 495.501 402.454 491.361 401.856C490.487 401.718 490.119 403.052 490.993 403.19C496.053 403.926 503.183 402.5 502.723 395.968C502.355 390.586 496.973 386.676 491.821 387.642C490.947 387.78 491.315 389.114 492.189 388.976Z" fill="#161616"/>
<path d="M491.177 404.294C492.971 404.662 494.397 405.95 494.903 407.698C495.133 408.572 496.467 408.204 496.237 407.33C495.639 405.122 493.845 403.374 491.591 402.96C490.671 402.822 490.303 404.11 491.177 404.294Z" fill="#161616"/>
<path d="M490.487 403.834C491.591 405.444 492.097 407.238 491.913 409.216C491.867 410.09 493.247 410.09 493.293 409.216C493.431 407.054 492.879 404.938 491.637 403.144C491.177 402.408 489.981 403.098 490.487 403.834Z" fill="#161616"/>
<path d="M467.809 388.332C464.773 386.4 459.207 391.966 458.517 394.68C457.137 400.2 464.221 399.556 467.165 401.396C467.901 401.856 468.591 400.66 467.855 400.2C465.739 398.866 462.611 399.372 460.771 397.716C458.517 395.692 460.587 393.254 462.151 391.828C462.979 391.092 465.785 388.654 467.119 389.482C467.855 390.034 468.591 388.838 467.809 388.332Z" fill="#161616"/>
<path d="M467.073 400.752C465.877 401.212 464.773 401.902 463.853 402.868C463.163 403.604 462.289 404.754 462.979 405.766C463.485 406.502 464.681 405.812 464.175 405.076C463.853 404.616 465.049 403.604 465.371 403.328C465.969 402.776 466.659 402.362 467.441 402.086C468.269 401.764 467.947 400.43 467.073 400.752Z" fill="#161616"/>
<path d="M466.521 401.718C465.647 403.098 465.371 404.662 465.693 406.226C465.877 407.1 467.211 406.732 467.027 405.858C466.751 404.616 467.027 403.466 467.717 402.408C468.223 401.672 467.027 400.982 466.521 401.718Z" fill="#161616"/>
<path d="M470.891 387.458C470.661 390.816 470.707 394.22 470.937 397.578C471.029 398.452 472.409 398.452 472.317 397.578C472.041 394.22 472.041 390.816 472.271 387.458C472.363 386.584 470.983 386.584 470.891 387.458Z" fill="#161616"/>
<path d="M471.903 387.826C476.779 388.102 481.609 388.286 486.485 388.378C486.255 388.148 486.025 387.918 485.795 387.688C485.657 391.138 485.519 394.634 485.335 398.084C485.289 398.958 486.669 398.958 486.715 398.084C486.853 394.634 486.991 391.138 487.175 387.688C487.175 387.32 486.853 386.998 486.485 386.998C481.609 386.906 476.779 386.722 471.903 386.446C471.029 386.4 471.029 387.78 471.903 387.826Z" fill="#161616"/>
<path d="M471.351 398.176C473.375 398.728 475.629 398.59 477.653 398.728C480.137 398.866 482.667 399.05 485.151 399.188C486.025 399.234 486.025 397.854 485.151 397.808C482.943 397.67 480.735 397.532 478.527 397.394C476.319 397.256 473.835 397.394 471.673 396.842C470.891 396.612 470.523 397.946 471.351 398.176Z" fill="#161616"/>
<path d="M472.915 405.306C473.743 407.1 475.537 405.536 476.917 406.18C477.561 406.456 477.423 406.87 478.297 406.916C479.309 406.962 481.793 404.938 482.299 406.824C482.437 407.33 483.081 407.468 483.449 407.146C483.909 407.008 484.415 406.87 484.875 406.778C485.427 407.468 486.439 406.456 485.841 405.812C484.783 404.57 483.449 405.26 482.437 406.18C482.805 406.272 483.219 406.364 483.587 406.502C483.173 404.892 481.471 403.834 479.861 404.57C479.079 404.938 478.987 405.628 477.791 405.168C477.561 405.076 477.469 404.708 477.239 404.616C476.733 404.432 474.065 404.708 474.065 404.662C473.743 403.788 472.547 404.478 472.915 405.306Z" fill="#161616"/>
<path d="M475.353 369.104C475.445 368.598 476.043 368.46 476.457 368.644C477.055 368.874 477.377 369.564 477.653 370.07C478.021 370.852 479.217 370.162 478.849 369.38C478.343 368.368 477.561 367.31 476.319 367.172C475.307 367.08 474.249 367.678 474.065 368.69C473.835 369.61 475.169 369.978 475.353 369.104Z" fill="#161616"/>
<path d="M483.817 369.748C483.909 369.288 484.323 369.012 484.783 369.196C485.335 369.38 485.565 370.07 485.657 370.576C485.795 371.45 487.129 371.082 486.991 370.208C486.807 369.104 486.071 367.954 484.875 367.77C483.817 367.632 482.667 368.276 482.483 369.38C482.345 370.254 483.679 370.622 483.817 369.748Z" fill="#161616"/>
<path d="M476.043 372.002C477.607 374.762 481.333 375.176 483.357 372.692C483.909 372.002 482.943 371.036 482.391 371.726C480.919 373.52 478.389 373.382 477.239 371.312C476.825 370.53 475.629 371.22 476.043 372.002Z" fill="#161616"/>
<path d="M427.789 122.038C421.993 119.692 418.497 114.08 416.381 108.468C414.127 102.626 413.161 96.2779 413.483 90.0219C414.035 78.4759 418.957 66.7919 428.065 59.4319C436.667 52.4399 449.409 50.4619 458.977 56.8099C468.959 63.4339 470.753 77.0959 470.845 88.0899C470.937 100.326 468.085 113.16 459.023 121.946C458.379 122.544 459.345 123.556 459.989 122.912C468.591 114.54 471.857 102.58 472.179 90.8959C472.501 79.4419 471.121 64.9519 461.691 57.0859C452.859 49.7259 439.749 50.0939 430.319 56.0739C419.877 62.6979 413.713 74.7039 412.379 86.8019C411.551 94.2999 412.471 102.074 415.231 109.158C417.577 115.138 421.303 120.842 427.467 123.326C428.249 123.694 428.571 122.36 427.789 122.038Z" fill="#161616"/>
<path d="M427.145 122.912C425.581 125.12 425.903 128.386 428.203 130.042C429.951 131.284 432.527 131.468 434.597 131.744C437.081 132.112 439.611 132.25 442.141 132.25C446.649 132.204 451.801 131.882 455.987 130.134C459.023 128.846 461.323 125.81 459.713 122.544C459.345 121.762 458.149 122.452 458.517 123.234C461.967 130.272 445.637 130.87 442.095 130.87C438.829 130.87 435.563 130.594 432.389 129.996C430.871 129.72 429.169 129.444 428.203 128.11C427.237 126.73 427.421 124.936 428.341 123.648C428.847 122.866 427.651 122.176 427.145 122.912Z" fill="#161616"/>
<path d="M428.617 130.364C428.617 132.664 428.663 135.01 428.939 137.31C429.077 138.368 429.307 139.288 430.181 139.932C431.423 140.852 433.493 140.806 434.965 140.944C437.449 141.128 439.979 141.128 442.463 141.036C444.809 140.944 447.155 140.76 449.501 140.53C450.881 140.392 452.445 140.438 453.503 139.38C455.849 137.08 455.895 132.71 455.297 129.812C455.113 128.938 453.779 129.306 453.963 130.18C454.285 131.744 454.377 133.308 454.055 134.918C453.595 137.172 452.951 138.644 450.421 139.104C447.477 139.656 444.165 139.656 441.175 139.702C438.231 139.748 434.919 139.886 432.021 139.196C429.353 138.552 430.043 132.572 430.043 130.364C429.997 129.49 428.617 129.49 428.617 130.364Z" fill="#161616"/>
<path d="M429.077 80.8219C434.597 84.2719 438.783 89.3319 441.129 95.4039C441.451 96.2319 442.785 95.8639 442.463 95.0359C439.979 88.5959 435.609 83.2599 429.813 79.6259C429.031 79.1199 428.341 80.3159 429.077 80.8219Z" fill="#161616"/>
<path d="M442.233 95.4041C444.947 89.7001 448.903 84.8241 453.963 81.0521C454.653 80.5461 453.963 79.3041 453.273 79.8561C448.029 83.7661 443.889 88.8261 441.037 94.7141C440.669 95.4961 441.865 96.1861 442.233 95.4041Z" fill="#161616"/>
<path d="M441.129 93.794C441.819 103.27 442.141 112.746 442.003 122.222C442.003 123.096 443.383 123.096 443.383 122.222C443.521 112.746 443.199 103.224 442.509 93.794C442.417 92.874 441.037 92.874 441.129 93.794Z" fill="#161616"/>
<path d="M387.263 116.978C393.381 114.908 399.453 112.838 405.571 110.768C406.399 110.492 406.031 109.158 405.203 109.434C399.085 111.504 393.013 113.574 386.895 115.644C386.021 115.92 386.389 117.254 387.263 116.978Z" fill="#161616"/>
<path d="M394.255 107.778C396.371 107.18 398.487 106.536 400.603 105.938C401.431 105.708 401.109 104.374 400.235 104.604C398.119 105.202 396.003 105.846 393.887 106.444C393.059 106.72 393.381 108.054 394.255 107.778Z" fill="#161616"/>
<path d="M378.937 92.4598C387.033 92.3678 395.083 92.5978 403.133 93.1038C404.007 93.1498 404.007 91.7698 403.133 91.7238C395.083 91.2178 386.987 91.0338 378.937 91.0798C378.063 91.0798 378.063 92.4598 378.937 92.4598Z" fill="#161616"/>
<path d="M396.049 86.2038C397.981 86.7098 399.959 86.9398 401.937 86.9858C402.811 86.9858 402.811 85.6058 401.937 85.6058C400.051 85.5598 398.211 85.3298 396.417 84.8698C395.543 84.6398 395.175 85.9738 396.049 86.2038Z" fill="#161616"/>
<path d="M393.059 43.378C400.281 49.588 406.859 56.396 412.793 63.848C413.345 64.538 414.311 63.572 413.759 62.882C407.825 55.43 401.247 48.576 394.025 42.412C393.381 41.814 392.369 42.78 393.059 43.378Z" fill="#161616"/>
<path d="M413.253 56.4418C414.495 57.7298 415.691 59.0178 416.933 60.3518C417.531 60.9958 418.497 60.0298 417.899 59.3858C416.657 58.0978 415.461 56.8098 414.219 55.4758C413.621 54.8318 412.655 55.7978 413.253 56.4418Z" fill="#161616"/>
<path d="M385.239 59.018C387.493 60.352 389.793 61.594 392.139 62.744C392.921 63.158 393.611 61.962 392.829 61.548C390.483 60.352 388.183 59.11 385.929 57.822C385.147 57.362 384.457 58.558 385.239 59.018Z" fill="#161616"/>
<path d="M465.279 48.5299C472.087 41.7219 478.895 34.9139 485.703 28.1059C486.347 27.4619 485.335 26.4959 484.737 27.1399C477.929 33.9479 471.121 40.7559 464.313 47.5639C463.669 48.2079 464.635 49.1739 465.279 48.5299Z" fill="#161616"/>
<path d="M472.133 51.7039C473.881 50.4159 475.629 49.1739 477.377 47.8859C478.067 47.3799 477.423 46.1839 476.687 46.6899C474.939 47.9779 473.191 49.2199 471.443 50.5079C470.707 51.0139 471.397 52.2099 472.133 51.7039Z" fill="#161616"/>
<path d="M444.027 39.514C445.407 32.844 446.465 26.1279 447.109 19.3659C447.201 18.4919 445.821 18.4919 445.729 19.3659C445.085 25.9899 444.073 32.6139 442.693 39.146C442.509 40.02 443.843 40.388 444.027 39.514Z" fill="#161616"/>
<path d="M482.713 81.8339C495.225 80.6839 507.691 79.5339 520.203 78.3839C521.077 78.2919 521.077 76.9119 520.203 77.0039C507.691 78.1539 495.225 79.3039 482.713 80.4539C481.839 80.4999 481.793 81.8799 482.713 81.8339Z" fill="#161616"/>
<path d="M430.135 124.568C437.909 126.27 445.821 126.224 453.549 124.476C454.423 124.292 454.055 122.958 453.181 123.142C445.683 124.844 438.001 124.89 430.503 123.234C429.629 123.05 429.261 124.384 430.135 124.568Z" fill="#161616"/>
<path d="M431.285 136.252C437.219 137.034 443.153 137.218 449.133 136.804C450.007 136.758 450.007 135.378 449.133 135.424C443.153 135.838 437.219 135.654 431.285 134.872C430.411 134.78 430.411 136.16 431.285 136.252Z" fill="#161616"/>
<path d="M474.019 119.922C483.357 126.5 492.879 132.848 502.539 138.966C503.275 139.426 503.965 138.23 503.229 137.77C493.569 131.652 484.047 125.304 474.709 118.726C473.973 118.22 473.283 119.416 474.019 119.922Z" fill="#161616"/>
<path d="M356.489 443.486C347.749 454.204 339.055 464.876 330.315 475.594C340.573 511.658 346.369 521.134 349.819 520.628C352.303 520.26 353.499 514.878 354.833 508.852C358.145 493.81 356.167 480.884 354.143 472.834C359.663 466.67 365.137 460.46 370.657 454.296C365.919 450.708 361.227 447.12 356.489 443.486Z" fill="#161616" stroke="#161616" stroke-width="2" stroke-miterlimit="10"/>
<path d="M324.243 388.286C329.717 392.518 334.961 391 345.817 392.84C355.063 394.404 365.459 397.854 376.499 404.754C364.723 418.554 352.947 433.136 341.263 448.5C338.457 452.226 335.651 455.952 332.937 459.678C337.445 460.736 342.873 462.392 348.761 465.06C354.511 467.636 359.203 470.534 362.929 473.156C380.455 457.884 396.095 443.118 410.033 429.18C416.473 422.74 425.581 412.896 427.007 398.958C427.099 398.176 427.099 397.486 427.099 396.796C426.777 373.658 397.659 356.914 379.949 350.75C360.583 344.034 327.279 340.4 317.987 356.454C312.513 365.93 315.733 381.708 324.243 388.286Z" fill="#EC615B"/>
<path opacity="0.26" d="M358.237 365.148C357.915 369.518 357.133 374.716 355.523 380.466C354.373 384.56 352.993 388.194 351.613 391.276C350.095 391.874 348.623 392.472 347.105 393.07C356.995 396.98 366.931 400.89 376.821 404.8C369.461 413.218 362.055 422.05 354.603 431.25C346.921 440.726 339.607 450.018 332.661 459.172C337.583 460.782 342.459 462.392 347.381 463.956C364.999 444.544 382.617 425.086 400.235 405.674C402.075 400.384 401.983 396.244 401.431 393.346C398.901 379.178 381.559 367.632 358.237 365.148Z" fill="#6D6C6C"/>
<path opacity="0.23" d="M376.729 404.708C378.339 407.146 379.903 409.63 381.513 412.068C367.805 428.582 354.097 445.05 340.389 461.564C337.951 460.92 335.467 460.23 333.029 459.586C341.815 447.534 351.291 435.16 361.549 422.694C366.655 416.484 371.715 410.504 376.729 404.708Z" fill="#6D6C6C"/>
<path d="M330.959 426.006C344.529 428.49 358.145 430.928 371.715 433.412C387.401 467.636 389.149 478.676 386.205 480.562C384.089 481.896 379.673 478.584 374.751 474.858C362.423 465.52 355.569 454.388 351.843 446.89C343.655 445.786 335.467 444.636 327.279 443.532C328.475 437.69 329.717 431.848 330.959 426.006Z" fill="#161616" stroke="#161616" stroke-width="2" stroke-miterlimit="10"/>
<path d="M302.991 349.784C278.243 357.052 263.155 372.14 253.449 382.076C240.339 395.554 224.239 412.068 228.885 424.258C231.277 430.468 238.545 434.286 272.401 440.174C297.977 444.636 320.149 447.028 337.445 448.362C339.607 440.45 341.769 432.584 343.885 424.672C326.497 419.06 309.155 413.494 291.767 407.882C302.439 405.628 313.663 402.96 325.347 399.694C334.225 397.21 342.689 394.634 350.739 391.92C358.191 376.878 359.801 360.64 352.027 351.44C341.171 338.56 316.837 345.69 302.991 349.784Z" fill="#EC615B"/>
<path opacity="0.29" d="M358.053 365.7C357.823 370.254 357.041 376.096 354.925 382.536C353.637 386.446 352.165 389.85 350.693 392.656C349.451 392.748 348.209 392.886 346.967 392.978C336.479 396.428 325.301 399.694 313.479 402.73C305.843 404.708 298.391 406.41 291.169 407.974C308.603 413.448 326.037 418.876 343.471 424.35C343.103 426.236 342.643 428.214 342.091 430.284C341.447 432.676 340.711 434.884 340.021 436.908C315.963 430.974 291.905 425.04 267.847 419.106C266.743 417.772 263.109 412.942 263.661 406.548C264.259 399.602 270.883 394.68 279.347 390.172C303.819 377.2 344.851 368.414 358.053 365.7Z" fill="#6D6C6C"/>
<path opacity="0.24" d="M278.795 408.94C283.165 408.618 287.581 408.296 291.951 407.928C309.109 413.632 326.267 419.382 343.425 425.086C342.689 427.8 341.953 430.56 341.217 433.274C320.425 425.132 299.587 417.036 278.795 408.94Z" fill="#6D6C6C"/>
<path d="M296.505 245.548C303.313 241.546 315.135 235.842 330.867 234.186C354.971 231.656 373.463 240.304 380.777 244.214C379.443 262.292 377.373 276.736 375.717 286.672C373.739 298.54 372.129 305.118 371.393 316.02C370.473 329.682 371.623 340.906 372.681 348.266C364.677 350.75 352.579 353.464 337.675 353.142C323.323 352.82 311.731 349.692 303.957 346.978C306.027 330.51 305.337 317.446 304.325 308.568C303.175 298.678 301.611 293.848 299.725 281.888C297.287 266.432 296.643 253.782 296.505 245.548Z" fill="white" stroke="#161616" stroke-width="2" stroke-miterlimit="10"/>
<path opacity="0.14" d="M346.277 239.66C347.243 243.156 348.347 247.986 349.083 253.782C349.589 257.692 351.659 275.402 345.219 298.77C341.263 313.168 337.077 328.394 323.369 340.906C318.953 344.954 314.675 347.668 311.547 349.37C318.493 351.164 327.555 352.866 338.273 352.958C352.303 353.096 363.895 350.566 371.945 348.082C371.485 344.632 370.887 339.434 370.657 333.178C370.473 327.704 370.473 318.964 374.245 294.354C377.235 274.988 379.351 266.662 380.409 249.136C380.547 247.112 380.593 245.41 380.685 244.26C377.327 242.282 372.957 240.12 367.575 238.372C362.607 236.762 358.145 235.934 354.465 235.566C351.797 236.9 349.037 238.28 346.277 239.66Z" fill="#6D6C6C"/>
<path opacity="0.17" d="M379.351 251.758C376.775 266.34 373.371 278.116 370.703 286.304C362.883 310.224 357.409 326.324 342.643 338.1C333.489 345.414 323.967 348.496 317.849 349.968C324.059 351.716 332.845 353.418 343.471 353.188C355.707 352.912 365.597 350.152 372.083 347.806C371.209 342.194 370.197 333.776 370.473 323.518C370.795 310.224 372.957 302.22 375.349 287.638C376.683 279.082 378.385 266.846 379.351 251.758Z" fill="#6D6C6C"/>
<path d="M296.229 245.318C290.249 249.458 282.567 255.99 275.851 265.696C260.717 287.684 261.131 311.006 261.729 319.608C264.489 327.014 269.227 336.72 277.507 346.242C282.337 351.808 289.421 359.812 301.519 364.964C305.567 366.712 309.109 367.678 311.685 368.23C313.893 366.252 316.055 364.274 318.263 362.296C311.179 354.016 304.049 345.322 296.919 336.352C291.445 329.498 286.201 322.69 281.141 315.974C281.325 310.316 282.521 300.058 288.685 289.34C292.181 283.268 296.275 278.852 299.541 275.862C298.437 265.696 297.333 255.53 296.229 245.318Z" fill="white" stroke="#161616" stroke-width="2" stroke-miterlimit="10"/>
<path opacity="0.13" d="M297.103 255.576C283.855 270.526 277.553 284.694 274.425 293.618C268.951 309.074 270.101 317.17 270.929 321.034C271.619 324.07 273.137 329.268 278.703 337.18C283.533 344.034 293.699 356.316 313.065 366.436C314.767 364.78 316.469 363.17 318.171 361.514C312.697 355.35 307.177 348.864 301.611 342.102C294.297 333.224 287.489 324.484 281.187 315.928C281.371 311.282 282.153 304.796 284.867 297.528C288.961 286.626 295.401 279.45 299.403 275.632C298.575 268.962 297.839 262.292 297.103 255.576Z" fill="#6D6C6C"/>
<path opacity="0.16" d="M281.141 316.526C281.969 321.908 283.671 328.762 287.259 336.168C295.171 352.268 307.545 361.146 313.847 365.01C315.089 363.906 316.285 362.848 317.527 361.744C305.383 346.656 293.285 331.568 281.141 316.526Z" fill="#6D6C6C"/>
<path d="M381.467 244.49C388.183 248.584 396.831 254.978 404.329 264.5C421.349 286.074 420.843 308.982 420.199 317.446C417.071 324.714 411.781 334.236 402.489 343.62C397.061 349.048 389.103 356.914 375.533 362.02C370.979 363.722 366.977 364.688 364.079 365.24C361.641 363.308 359.157 361.376 356.719 359.444C364.631 351.302 372.681 342.792 380.685 333.96C386.803 327.198 392.691 320.528 398.395 313.95C398.165 308.43 396.877 298.356 389.931 287.776C385.975 281.796 381.421 277.472 377.741 274.528C379.029 264.5 380.271 254.518 381.467 244.49Z" fill="white" stroke="#161616" stroke-width="2" stroke-miterlimit="10"/>
<path opacity="0.16" d="M381.145 255.668C386.987 261.786 394.945 271.584 401.155 285.246C404.099 291.732 408.883 302.266 408.975 312.202C409.297 342.424 366.517 363.216 364.033 364.412C361.595 362.848 359.203 361.33 356.765 359.766C370.611 344.586 384.411 329.406 398.257 314.226C397.981 309.258 396.831 300.012 391.311 290.168C386.757 282.072 381.099 276.828 377.373 273.93C378.661 267.858 379.903 261.786 381.145 255.668Z" fill="#6D6C6C"/>
<path opacity="0.12" d="M398.717 314.364C398.027 318.366 396.877 322.736 395.083 327.244C386.987 347.668 370.611 358.846 362.331 363.63C360.353 362.342 358.421 361.054 356.443 359.766C370.519 344.632 384.595 329.498 398.717 314.364Z" fill="#6D6C6C"/>
<path d="M392.047 317.768H278.933V389.39H392.047V317.768Z" fill="white" stroke="#161616" stroke-width="2" stroke-miterlimit="10"/>
<path d="M333.857 360.41C327.877 361.146 324.979 353.878 326.543 349.048C328.061 344.264 333.719 342.01 338.319 343.666C342.873 345.322 345.081 350.888 343.471 355.35C341.677 360.318 335.421 362.342 330.821 360.134C330.039 359.766 329.303 360.962 330.131 361.33C334.225 363.308 339.239 362.572 342.505 359.352C345.679 356.178 346.139 351.164 344.161 347.254C339.653 338.33 325.715 341.182 324.749 350.98C324.243 356.224 328.015 362.526 333.857 361.836C334.731 361.698 334.731 360.318 333.857 360.41Z" fill="#161616"/>
<path opacity="0.14" d="M321.391 317.584C336.709 322.92 347.151 336.582 347.473 351.256C347.887 369.656 332.431 386.952 311.363 388.7C338.181 388.93 364.999 389.16 391.863 389.39C391.771 365.378 391.725 341.366 391.633 317.4C368.219 317.4 344.805 317.492 321.391 317.584Z" fill="#6D6C6C"/>
<path opacity="0.26" d="M391.863 317.354C391.449 331.982 388.551 343.39 386.113 350.888C382.525 361.79 379.949 369.748 372.543 376.786C362.469 386.446 349.911 388.24 344.391 388.7C360.077 388.838 375.763 388.976 391.449 389.16C391.495 375.498 391.587 361.836 391.679 348.128C391.679 337.87 391.771 327.612 391.863 317.354Z" fill="#6D6C6C"/>
<path d="M332.155 208.426C329.625 211.508 332.063 215.28 331.603 225.354C331.373 230.368 330.545 234.416 329.901 237.13C332.063 238.142 335.881 239.568 340.803 239.706C346.875 239.844 351.475 237.958 353.729 236.854C352.717 234.83 351.383 231.702 350.555 227.654C348.485 217.35 352.165 212.52 349.129 208.702C345.587 204.286 335.559 204.24 332.155 208.426Z" fill="white" stroke="#161616" stroke-width="2" stroke-miterlimit="10"/>
<path d="M316.101 164.174C313.203 171.626 314.307 178.342 314.951 181.24C314.675 181.286 309.293 182.436 307.821 186.576C306.349 190.762 309.385 196.696 315.733 198.628C318.033 204.24 323.599 215.096 335.329 221.03C337.307 221.996 339.193 222.778 341.079 223.33C342.781 222.686 345.081 221.674 347.703 220.156C355.891 215.418 360.445 209.53 361.503 208.104C363.435 205.528 366.057 201.388 367.897 195.684C368.909 195.868 370.703 195.96 372.451 195.086C376.407 193.062 378.385 186.76 375.625 182.666C373.325 179.262 368.863 179.124 368.311 179.124C368.909 176.732 370.749 168.13 366.103 159.62C360.767 149.822 349.313 144.67 338.549 146.142C322.633 148.212 316.377 163.438 316.101 164.174Z" fill="white" stroke="#161616" stroke-width="2" stroke-miterlimit="10"/>
<path d="M331.557 220.616C334.363 222.272 337.445 224.848 340.895 224.572C343.747 224.342 346.921 222.686 349.083 220.938C349.773 220.386 348.807 219.42 348.117 219.972C346.093 221.582 342.827 223.284 340.159 223.238C337.353 223.192 334.501 220.846 332.201 219.42C331.511 218.96 330.821 220.156 331.557 220.616Z" fill="#161616"/>
<path d="M331.373 221.214C333.995 223.468 336.985 225.998 340.665 225.814C344.253 225.63 347.611 223.238 349.957 220.662C350.555 220.018 349.589 219.052 348.991 219.696C346.967 221.904 344.115 224.066 340.987 224.388C337.537 224.71 334.777 222.364 332.339 220.248C331.695 219.65 330.729 220.616 331.373 221.214Z" fill="#161616"/>
<path d="M333.121 221.49C333.121 221.444 333.121 221.444 333.121 221.49C332.845 221.076 332.339 220.984 332.017 221.306C332.017 221.306 332.017 221.306 331.971 221.352C331.695 221.582 331.695 222.088 331.971 222.318C337.031 227.148 346.323 228.712 349.957 221.306C350.325 220.524 349.175 219.788 348.761 220.616C345.541 227.24 337.399 225.63 332.983 221.352C332.983 221.674 332.983 221.996 332.983 222.318C332.983 222.318 332.983 222.318 333.029 222.272C332.661 222.226 332.293 222.18 331.925 222.134V222.18C332.385 222.916 333.581 222.226 333.121 221.49Z" fill="#161616"/>
<path d="M338.641 178.94C338.043 186.392 338.365 193.798 339.561 201.158C339.607 201.526 340.067 201.756 340.389 201.618C342.183 201.02 343.471 199.962 344.437 198.352C344.897 197.57 343.701 196.88 343.241 197.662C342.459 198.996 341.493 199.778 340.021 200.284C340.297 200.422 340.573 200.606 340.849 200.744C339.653 193.522 339.377 186.208 339.975 178.894C340.113 178.02 338.733 178.02 338.641 178.94Z" fill="#161616"/>
<path d="M330.453 186.254C330.545 186.668 331.235 189.244 330.453 189.658C329.671 190.072 327.463 188.416 326.773 186.254C326.221 184.414 326.681 182.114 327.555 181.93C328.475 181.7 329.901 184.23 330.453 186.254Z" fill="#161616" stroke="#161616" stroke-miterlimit="10"/>
<path d="M354.189 186.254C354.281 186.668 354.971 189.244 354.189 189.658C353.407 190.072 351.199 188.416 350.509 186.254C349.957 184.414 350.417 182.114 351.291 181.93C352.211 181.7 353.637 184.23 354.189 186.254Z" fill="#161616" stroke="#161616" stroke-miterlimit="10"/>
<path d="M336.985 207.23C342.597 209.622 347.703 206.264 351.843 202.63C352.533 202.032 351.521 201.066 350.877 201.664C347.289 204.792 342.689 208.15 337.721 206.034C336.847 205.712 336.157 206.908 336.985 207.23Z" fill="#161616"/>
<path d="M353.177 193.568C354.051 193.568 354.051 192.188 353.177 192.188C352.303 192.188 352.303 193.568 353.177 193.568Z" fill="#161616"/>
<path d="M358.283 190.992C358.329 190.946 358.375 190.9 358.421 190.854C358.697 190.578 358.697 190.164 358.421 189.888C358.145 189.612 357.731 189.612 357.455 189.888C357.409 189.934 357.363 189.98 357.317 190.026C357.041 190.302 357.041 190.716 357.317 190.992C357.593 191.268 358.007 191.268 358.283 190.992Z" fill="#161616"/>
<path d="M356.765 194.35C356.811 194.35 356.857 194.35 356.903 194.35C357.271 194.35 357.593 194.028 357.593 193.66C357.593 193.292 357.271 192.97 356.903 192.97C356.857 192.97 356.811 192.97 356.765 192.97C356.397 192.97 356.075 193.292 356.075 193.66C356.075 194.028 356.351 194.35 356.765 194.35Z" fill="#161616"/>
<path d="M325.025 178.02C326.773 176.548 329.349 176.502 331.097 177.928C331.787 178.48 332.753 177.514 332.063 176.962C329.671 175.03 326.359 175.03 324.013 177.054C323.369 177.606 324.381 178.572 325.025 178.02Z" fill="#161616"/>
<path d="M347.473 177.514C349.451 175.766 352.257 175.444 354.603 176.686C355.385 177.1 356.075 175.904 355.293 175.49C352.395 173.926 348.945 174.34 346.507 176.548C345.817 177.146 346.783 178.112 347.473 177.514Z" fill="#161616"/>
<path d="M325.393 193.43C326.267 193.43 326.267 192.05 325.393 192.05C324.519 192.05 324.519 193.43 325.393 193.43Z" fill="#161616"/>
<path d="M330.269 192.786C331.143 192.786 331.143 191.406 330.269 191.406C329.395 191.406 329.395 192.786 330.269 192.786Z" fill="#161616"/>
<path d="M327.831 193.844C327.785 193.89 327.739 193.936 327.693 193.982C327.417 194.258 327.417 194.672 327.693 194.948C327.969 195.224 328.383 195.224 328.659 194.948C328.705 194.902 328.751 194.856 328.797 194.81C329.073 194.534 329.073 194.12 328.797 193.844C328.521 193.568 328.107 193.568 327.831 193.844Z" fill="#161616"/>
<path d="M323.599 149.224C320.839 150.926 314.813 154.652 310.719 162.288C306.625 169.878 306.671 177.054 306.855 180.136C300.139 192.234 297.103 202.906 295.631 210.174C293.239 221.72 294.527 225.952 296.183 228.758C300.231 235.658 308.373 237.36 310.351 237.774C320.517 239.936 328.613 234.738 330.453 233.542C330.959 232.024 331.465 230.138 331.741 228.022C332.247 224.388 331.971 221.26 331.557 219.006C329.257 217.12 326.589 214.59 324.013 211.278C320.103 206.218 317.895 201.25 316.653 197.662C312.605 197.248 309.569 194.488 309.293 191.406C309.017 188.508 311.041 184.782 313.709 184.782C315.687 184.782 317.113 186.806 317.389 187.174C318.907 186.3 321.023 184.782 322.909 182.39C325.623 178.94 326.083 175.858 327.325 172.638C328.521 169.51 330.821 165.186 335.789 160.678C340.573 162.38 344.391 164.036 347.013 165.278C355.431 169.188 360.215 171.488 363.941 176.502C366.011 179.262 367.069 181.976 367.621 183.678C371.899 180.412 373.647 181.286 374.015 181.47C376.729 182.988 376.637 191.314 372.405 193.614C370.795 194.488 368.955 194.258 367.805 193.982C366.471 198.628 363.527 206.218 356.765 212.934C354.511 215.188 352.211 216.936 350.141 218.27C349.957 219.972 349.865 222.318 350.325 225.078C350.739 227.608 351.475 229.678 352.165 231.15C363.343 238.51 377.235 237.176 384.779 229.264C391.495 222.18 391.495 211.462 388.965 204.148C386.665 197.478 382.203 193.476 379.995 191.728C380.593 189.152 383.905 173.88 374.291 159.85C371.807 156.216 364.861 147.43 352.349 144.394C339.101 141.174 328.199 146.418 323.599 149.224Z" fill="#0B409C"/>
<path opacity="0.17" d="M352.763 168.13C357.961 174.662 359.341 180.688 359.801 183.816C361.687 196.972 354.051 207.644 350.187 213.118C347.013 217.58 343.747 220.754 341.401 222.824C343.425 228.252 345.403 233.634 347.427 239.062C349.497 238.372 351.567 237.682 353.637 236.992C352.671 235.29 351.659 233.174 350.877 230.598C349.451 225.998 349.359 221.95 349.497 219.19C352.027 217.396 354.971 214.958 357.823 211.738C363.527 205.298 366.379 198.674 367.851 194.212C368.771 194.396 370.749 194.626 372.635 193.568C376.591 191.314 375.947 185.702 375.901 185.334C375.763 184.138 375.487 182.206 374.107 181.424C372.497 180.55 369.829 181.378 367.713 183.862C367.069 181.608 365.229 176.41 360.261 172.27C357.501 169.97 354.695 168.774 352.763 168.13Z" fill="#6D6C6C"/>
<path opacity="0.19" d="M339.285 179.354C339.009 179.308 338.089 183.31 335.283 200.974C336.893 200.974 338.503 200.974 340.113 200.974C339.791 198.628 339.423 195.224 339.239 191.084C339.009 184 339.561 179.4 339.285 179.354Z" fill="#6D6C6C"/>
<path opacity="0.54" d="M379.719 192.188C378.937 192.648 381.881 196.604 381.467 202.492C381.329 204.332 381.053 208.518 377.741 211.324C377.511 211.508 372.589 215.556 367.713 212.98C364.815 211.462 363.067 208.242 363.159 204.746C361.779 207.322 359.525 210.726 355.983 214.038C353.775 216.108 351.613 217.626 349.727 218.776C349.589 220.8 349.589 223.56 350.325 226.688C350.739 228.39 351.245 229.862 351.751 231.058C353.177 231.978 355.293 233.22 358.053 234.186C359.801 234.784 369.415 238.142 378.799 233.496C380.455 232.668 384.135 230.782 386.803 226.734C387.125 226.228 388.321 224.434 389.195 221.398C392.323 211.002 387.723 201.618 387.309 200.836C384.779 195.73 380.685 191.636 379.719 192.188Z" fill="#341999"/>
<path opacity="0.35" d="M316.607 197.846C316.193 197.892 317.113 201.664 316.101 205.39C315.365 208.15 313.019 212.658 309.017 213.578C304.831 214.498 299.633 211.416 297.241 205.666C296.137 208.196 294.665 212.244 294.435 217.396C294.297 220.754 294.113 224.342 295.769 227.884C299.495 235.796 310.443 238.878 318.585 238.142C324.013 237.636 328.107 235.52 330.315 234.094C330.867 232.53 331.419 230.644 331.787 228.482C332.385 224.756 332.247 221.49 331.925 219.098C328.291 216.476 325.807 213.762 324.243 211.784C322.035 208.978 319.045 205.206 317.527 199.962C317.297 199.364 316.883 197.8 316.607 197.846Z" fill="#341999"/>
<path d="M36.7088 138.402L76.6866 32.2796L150.104 137.131L36.7088 138.402Z" fill="white"/>
<path d="M540.007 486.997L573.389 551.546L492 541.553L540.007 486.997Z" fill="white"/>
</svg>
